<svg width="26" height="26" viewBox="0 0 26 26" fill="none" xmlns="http://www.w3.org/2000/svg">
<g clip-path="url(#clip0_1_161)">
<path d="M18.4247 13.0001L2.41128 0.57749C1.79809 1.05702 1.38504 1.80193 1.38504 2.69004L1.38504 23.3102C1.38504 24.1983 1.79809 24.9432 2.41128 25.4221L18.4247 13.0001Z" fill="#9DC6FB"/>
<path d="M23.2717 10.6738L19.397 8.43655L16.0008 8.86124L14.8344 12.9999L15.4268 16.9622L19.397 17.5625L23.2717 15.3259C25.0626 14.292 25.0626 11.7077 23.2717 10.6738Z" fill="#FFE07D"/>
<path d="M19.3967 8.43669L5.41401 0.363845C4.39229 -0.225675 3.22539 -0.0587559 2.41147 0.577381L14.8341 13L19.3967 8.43669Z" fill="#DD5790"/>
<path d="M19.3967 17.5627L14.8341 13L2.41147 25.422C3.22539 26.0589 4.39229 26.2258 5.41401 25.6362L19.3967 17.5627Z" fill="#95D6A4"/>
<path d="M4.41247 2.69C4.41247 2.50952 4.42922 2.33534 4.46162 2.16792L2.41143 0.577549C1.7983 1.05677 1.38504 1.80168 1.38504 2.69L1.38504 23.3102C1.38504 24.1979 1.79835 24.9429 2.41143 25.4221L4.46162 23.8318C4.42917 23.6644 4.41247 23.4901 4.41247 23.3102L4.41247 2.69Z" fill="#80B4FB"/>
<path d="M5.59217 0.466034L5.41429 0.363506C4.39257 -0.225558 3.22546 -0.0586896 2.41144 0.577448L4.41456 2.58057C4.447 1.74039 4.85087 1.03676 5.43836 0.577448H5.43886C5.48858 0.538753 5.53987 0.501123 5.59217 0.466034Z" fill="#DA387D"/>
<path d="M5.4389 25.422L5.4394 25.4209L5.43834 25.422C4.85034 24.9627 4.44698 24.2585 4.41454 23.4189L2.41147 25.422C3.22544 26.0586 4.3926 26.2255 5.41427 25.6359L5.59215 25.5334C5.53985 25.4984 5.48856 25.4607 5.4389 25.422Z" fill="#78C2A4"/>
</g>
<defs>
<clipPath id="clip0_1_161">
<rect width="26" height="26" fill="white" transform="matrix(1 0 0 -1 0 26)"/>
</clipPath>
</defs>
</svg>
