<svg width="21" height="21" viewBox="0 0 21 21" fill="none" xmlns="http://www.w3.org/2000/svg">
<path d="M10.5 21C16.299 21 21 16.299 21 10.5C21 4.70101 16.299 0 10.5 0C4.70101 0 0 4.70101 0 10.5C0 16.299 4.70101 21 10.5 21Z" fill="#6C27B3"/>
<path d="M15.369 5.452C14.1144 5.61081 12.8064 5.60527 11.4899 5.47993C9.65152 5.33851 6.96467 4.49002 5.97476 6.187C4.3845 8.90371 5.16884 12.3818 5.53942 15.4597L11.0657 20.9849C16.4137 20.7009 20.6997 16.4154 20.9846 11.0677L15.369 5.452Z" fill="#501A96"/>
<path d="M12.9292 4.48975H8.0707C6.0962 4.48975 4.48987 6.09608 4.48987 8.07057V12.9291C4.48987 14.9035 6.0962 16.51 8.07074 16.51H12.9292C14.9037 16.51 16.5101 14.9036 16.5101 12.9291V8.07057C16.5101 6.09608 14.9037 4.48975 12.9292 4.48975ZM15.3008 12.9291C15.3008 14.2389 14.239 15.3007 12.9292 15.3007H8.07074C6.76094 15.3007 5.69913 14.2389 5.69913 12.9291V8.07061C5.69913 6.76082 6.76094 5.69897 8.07074 5.69897H12.9292C14.239 5.69897 15.3008 6.76086 15.3008 8.07061V12.9291Z" fill="white"/>
<path d="M10.5 7.39111C8.78575 7.39111 7.39105 8.78581 7.39105 10.5C7.39105 12.2141 8.78575 13.6088 10.5 13.6088C12.2142 13.6088 13.6087 12.2142 13.6087 10.5C13.6087 8.78581 12.2142 7.39111 10.5 7.39111ZM10.5 12.3996C9.45082 12.3996 8.60028 11.5492 8.60028 10.5C8.60028 9.45084 9.45082 8.60034 10.5 8.60034C11.5491 8.60034 12.3995 9.4508 12.3995 10.5C12.3995 11.5492 11.5491 12.3996 10.5 12.3996Z" fill="white"/>
<path d="M14.3597 7.4144C14.3597 7.82579 14.0261 8.15937 13.6147 8.15937C13.2033 8.15937 12.8698 7.82579 12.8698 7.4144C12.8698 7.00297 13.2033 6.66943 13.6147 6.66943C14.0262 6.66943 14.3597 7.00289 14.3597 7.4144Z" fill="#D1D1D1"/>
<path d="M12.9293 4.48975H10.4764V5.69897H12.9293C14.239 5.69897 15.3009 6.76086 15.3009 8.07061V12.9291C15.3009 14.2389 14.239 15.3007 12.9293 15.3007H10.4764V16.51H12.9293C14.9037 16.51 16.5101 14.9036 16.5101 12.9291V8.07057C16.5101 6.09608 14.9037 4.48975 12.9293 4.48975Z" fill="#D1D1D1"/>
<path d="M10.5 7.39111C10.4921 7.39111 10.4844 7.39169 10.4764 7.39169V8.60091C10.4843 8.60083 10.4921 8.60034 10.5 8.60034C11.5491 8.60034 12.3995 9.4508 12.3995 10.5C12.3995 11.5492 11.5492 12.3996 10.5 12.3996C10.4921 12.3996 10.4843 12.3991 10.4764 12.399V13.6082C10.4844 13.6083 10.4921 13.6088 10.5 13.6088C12.2142 13.6088 13.6088 12.2142 13.6088 10.5C13.6088 8.78581 12.2142 7.39111 10.5 7.39111Z" fill="#D1D1D1"/>
</svg>
